<svg xmlns="http://www.w3.org/2000/svg" width="36" height="21" viewBox="0 0 36 21" fill="none"><path d="M8.77997 0.252267C8.86894 0.0962906 9.03472 0 9.21429 0H14.6334C14.813 0 14.9788 0.0962903 15.0678 0.252267L17.4896 4.49804C17.6814 4.8344 18.1663 4.8344 18.3582 4.49804L20.78 0.252266C20.8689 0.0962897 21.0347 0 21.2143 0H26.6334C26.813 0 26.9788 0.0962903 27.0678 0.252267L29.7826 5.01173C29.8701 5.16527 29.8701 5.35365 29.7826 5.50719L27.3504 9.77119C27.1602 10.1045 27.401 10.5189 27.7847 10.5189H32.6345C32.8135 10.5189 32.9789 10.6146 33.068 10.7698L35.7813 15.4924C35.8696 15.6461 35.8699 15.8351 35.782 15.9892L33.0678 20.7477C32.9788 20.9037 32.813 21 32.6334 21H27.2143C27.0347 21 26.8689 20.9037 26.78 20.7477L24.3582 16.502C24.1663 16.1656 23.6814 16.1656 23.4896 16.502L21.0678 20.7477C20.9788 20.9037 20.813 21 20.6334 21H15.2143C15.0347 21 14.8689 20.9037 14.78 20.7477L12.3582 16.502C12.1663 16.1656 11.6814 16.1656 11.4896 16.502L9.06776 20.7477C8.97879 20.9037 8.81301 21 8.63345 21H3.21429C3.03472 21 2.86894 20.9037 2.77997 20.7477L0.0656847 15.9892C-0.0221722 15.8351 -0.0218778 15.6461 0.0664582 15.4924L2.77971 10.7698C2.86888 10.6146 3.03424 10.5189 3.21325 10.5189H8.06304C8.44678 10.5189 8.68749 10.1045 8.49736 9.77119L6.06517 5.50719C5.97759 5.35365 5.97759 5.16527 6.06517 5.01173L8.77997 0.252267Z" fill="#FF6900"></path></svg>