<svg xmlns="http://www.w3.org/2000/svg" version="1.1" xmlns:xlink="http://www.w3.org/1999/xlink" width="360" height="138"><svg width="360" height="138" viewBox="0 0 360 138" fill="none" xmlns="http://www.w3.org/2000/svg">
<path fill-rule="evenodd" clip-rule="evenodd" d="M41.6104 41.5364L0 83.0733V110.536V138H27.784H55.5685L83.0852 110.537L110.602 83.0744V110.537V138H138.391H166.178L193.554 110.671C208.611 95.6394 221.114 83.3412 221.338 83.3412C221.563 83.3412 221.747 95.6394 221.747 110.671V138H249.263H276.78L318.39 96.4636L360 54.9267V27.4636V0H332.216H304.432L276.915 27.4625L249.398 54.9256V27.4625V0H221.609H193.821L166.446 27.3294C151.389 42.3606 138.886 54.6588 138.662 54.6588C138.437 54.6588 138.253 42.3606 138.253 27.3294V0H110.737H83.2202L41.6104 41.5364Z" fill="#FF6900" fill-opacity="0.8"></path>
</svg><style>@media (prefers-color-scheme: light) { :root { filter: none; } }
@media (prefers-color-scheme: dark) { :root { filter: none; } }
</style></svg>